<svg width="50" height="50" xmlns="http://www.w3.org/2000/svg" viewBox="0 0 100 100">
  <g fill="#808080" fill-rule="evenodd">
    <path d="M11 2h1V1h-1zM21 2h1V1h-1zM31 2h1V1h-1zM41 2h1V1h-1zM51 2h1V1h-1zM61 2h1V1h-1zM71 2h1V1h-1zM81 2h1V1h-1zM91 2h1V1h-1zM11 12h1v-1h-1zM1 12h1v-1H1zM21 12h1v-1h-1zM31 12h1v-1h-1zM41 12h1v-1h-1zM51 12h1v-1h-1zM61 12h1v-1h-1zM71 12h1v-1h-1zM81 12h1v-1h-1zM91 12h1v-1h-1zM11 22h1v-1h-1zM1 22h1v-1H1zM21 22h1v-1h-1zM31 22h1v-1h-1zM41 22h1v-1h-1zM51 22h1v-1h-1zM61 22h1v-1h-1zM71 22h1v-1h-1zM81 22h1v-1h-1zM91 22h1v-1h-1zM11 32h1v-1h-1zM1 32h1v-1H1zM21 32h1v-1h-1zM31 32h1v-1h-1zM41 32h1v-1h-1zM51 32h1v-1h-1zM61 32h1v-1h-1zM71 32h1v-1h-1zM81 32h1v-1h-1zM91 32h1v-1h-1zM11 42h1v-1h-1zM1 42h1v-1H1zM21 42h1v-1h-1zM31 42h1v-1h-1zM41 42h1v-1h-1zM51 42h1v-1h-1zM61 42h1v-1h-1zM71 42h1v-1h-1zM81 42h1v-1h-1zM91 42h1v-1h-1zM11 52h1v-1h-1zM1 52h1v-1H1zM21 52h1v-1h-1zM31 52h1v-1h-1zM41 52h1v-1h-1zM51 52h1v-1h-1zM61 52h1v-1h-1zM71 52h1v-1h-1zM81 52h1v-1h-1zM91 52h1v-1h-1zM11 62h1v-1h-1zM1 62h1v-1H1zM21 62h1v-1h-1zM31 62h1v-1h-1zM41 62h1v-1h-1zM51 62h1v-1h-1zM61 62h1v-1h-1zM71 62h1v-1h-1zM81 62h1v-1h-1zM91 62h1v-1h-1zM11 72h1v-1h-1zM1 72h1v-1H1zM21 72h1v-1h-1zM31 72h1v-1h-1zM41 72h1v-1h-1zM51 72h1v-1h-1zM61 72h1v-1h-1zM71 72h1v-1h-1zM81 72h1v-1h-1zM91 72h1v-1h-1zM11 82h1v-1h-1zM1 82h1v-1H1zM21 82h1v-1h-1zM31 82h1v-1h-1zM41 82h1v-1h-1zM51 82h1v-1h-1zM61 82h1v-1h-1zM71 82h1v-1h-1zM81 82h1v-1h-1zM91 82h1v-1h-1zM11 92h1v-1h-1zM1 92h1v-1H1zM21 92h1v-1h-1zM31 92h1v-1h-1zM41 92h1v-1h-1zM51 92h1v-1h-1zM61 92h1v-1h-1zM71 92h1v-1h-1zM81 92h1v-1h-1zM91 92h1v-1h-1zM1 0v1H0v1h1v1h1V2h1V1H2V0z"/>
    <path d="M11 2h1V1h-1zM21 2h1V1h-1zM31 2h1V1h-1zM41 2h1V1h-1zM51 2h1V1h-1zM61 2h1V1h-1zM71 2h1V1h-1zM81 2h1V1h-1zM91 2h1V1h-1zM11 12h1v-1h-1zM1 12h1v-1H1zM21 12h1v-1h-1zM31 12h1v-1h-1zM41 12h1v-1h-1zM51 12h1v-1h-1zM61 12h1v-1h-1zM71 12h1v-1h-1zM81 12h1v-1h-1zM91 12h1v-1h-1zM11 22h1v-1h-1zM1 22h1v-1H1zM21 22h1v-1h-1zM31 22h1v-1h-1zM41 22h1v-1h-1zM51 22h1v-1h-1zM61 22h1v-1h-1zM71 22h1v-1h-1zM81 22h1v-1h-1zM91 22h1v-1h-1zM11 32h1v-1h-1zM1 32h1v-1H1zM21 32h1v-1h-1zM31 32h1v-1h-1zM41 32h1v-1h-1zM51 32h1v-1h-1zM61 32h1v-1h-1zM71 32h1v-1h-1zM81 32h1v-1h-1zM91 32h1v-1h-1zM11 42h1v-1h-1zM1 42h1v-1H1zM21 42h1v-1h-1zM31 42h1v-1h-1zM41 42h1v-1h-1zM51 42h1v-1h-1zM61 42h1v-1h-1zM71 42h1v-1h-1zM81 42h1v-1h-1zM91 42h1v-1h-1zM11 52h1v-1h-1zM1 52h1v-1H1zM21 52h1v-1h-1zM31 52h1v-1h-1zM41 52h1v-1h-1zM51 52h1v-1h-1zM61 52h1v-1h-1zM71 52h1v-1h-1zM81 52h1v-1h-1zM91 52h1v-1h-1zM11 62h1v-1h-1zM1 62h1v-1H1zM21 62h1v-1h-1zM31 62h1v-1h-1zM41 62h1v-1h-1zM51 62h1v-1h-1zM61 62h1v-1h-1zM71 62h1v-1h-1zM81 62h1v-1h-1zM91 62h1v-1h-1zM11 72h1v-1h-1zM1 72h1v-1H1zM21 72h1v-1h-1zM31 72h1v-1h-1zM41 72h1v-1h-1zM51 72h1v-1h-1zM61 72h1v-1h-1zM71 72h1v-1h-1zM81 72h1v-1h-1zM91 72h1v-1h-1zM11 82h1v-1h-1zM1 82h1v-1H1zM21 82h1v-1h-1zM31 82h1v-1h-1zM41 82h1v-1h-1zM51 82h1v-1h-1zM61 82h1v-1h-1zM71 82h1v-1h-1zM81 82h1v-1h-1zM91 82h1v-1h-1zM11 92h1v-1h-1zM1 92h1v-1H1zM21 92h1v-1h-1zM31 92h1v-1h-1zM41 92h1v-1h-1zM51 92h1v-1h-1zM61 92h1v-1h-1zM71 92h1v-1h-1zM81 92h1v-1h-1zM91 92h1v-1h-1zM1 0v1H0v1h1v1h1V2h1V1H2V0z"/>
  </g>
</svg>
