<?xml version="1.0" encoding="utf-8"?>
<svg width="80px" height="67px" viewBox="0 0 80 67" version="1.1" xmlns:xlink="http://www.w3.org/1999/xlink" xmlns="http://www.w3.org/2000/svg">
  <defs>
    <path d="M0 0L80 0L80 66.671L0 66.671L0 0Z" id="path_1" />
    <clipPath id="mask_1">
      <use xlink:href="#path_1" />
    </clipPath>
  </defs>
  <g id="video">
    <path d="M0 0L80 0L80 66.671L0 66.671L0 0Z" id="Background" fill="none" fill-rule="evenodd" stroke="none" />
    <g clip-path="url(#mask_1)">
      <g id="Layer_2" transform="translate(0 -1.9073486E-06)">
        <g id="miscellaneous">
          <path d="M76.0091 1.14181e-06L3.99092 1.14181e-06C1.78789 0.0026391 0.00263834 1.78789 0 3.99092L3.80604e-07 62.68C0.00215193 64.883 1.7875 66.6685 3.99067 66.671L76.0091 66.671C78.2123 66.6687 79.9977 64.8832 80 62.68L80 3.99092C79.9972 1.78751 78.2117 0.00243129 76.0087 0L76.0091 1.14181e-06ZM3.99092 1.59637L76.0091 1.59637C77.3309 1.59786 78.4021 2.66907 78.4036 3.99092L78.4036 6.11185L1.59637 6.11185L1.59637 3.99092C1.59813 2.66916 2.66919 1.59812 3.99093 1.59637L3.99092 1.59637ZM76.0091 65.0746L3.99092 65.0746C2.66917 65.0728 1.59813 64.0018 1.59637 62.6801L1.59637 7.70822L78.4036 7.70822L78.4036 62.6801C78.4021 64.0019 77.3309 65.0731 76.0091 65.0746L76.0091 65.0746ZM29.7842 48.9231C29.3434 48.9231 28.986 48.5657 28.986 48.1249L28.986 21.7566C28.986 21.4714 29.1382 21.2079 29.3851 21.0653C29.6321 20.9228 29.9363 20.9228 30.1833 21.0653L53.019 34.2494C53.266 34.392 53.4181 34.6555 53.4181 34.9406C53.4181 35.2258 53.266 35.4893 53.019 35.6319L30.1833 48.8169C30.0619 48.8867 29.9243 48.9233 29.7842 48.9231L29.7842 48.9231ZM30.5824 23.139L30.5824 46.7416L51.0236 34.94L30.5824 23.139Z" id="Shape" fill="#FFFFFF" fill-rule="evenodd" stroke="none" />
        </g>
      </g>
    </g>
  </g>
</svg>